<svg width="285" height="112" viewBox="0 0 285 112" fill="none" xmlns="http://www.w3.org/2000/svg">
<path d="M0.909091 65.2727V58L59.4545 28.1818V39.8182L14.5455 61.4545L14.9091 60.7273V62.5455L14.5455 61.8182L59.4545 83.4545V95.0909L0.909091 65.2727ZM115.102 0.545448L85.1023 112H75.2841L105.284 0.545448H115.102ZM129.273 98V4.90909H140.545V46.3636H190.182V4.90909H201.455V98H190.182V56.3636H140.545V98H129.273ZM284.205 56.5455L225.659 86.3636V74.7273L270.568 53.0909L270.205 53.8182V52L270.568 52.7273L225.659 31.0909V19.4545L284.205 49.2727V56.5455Z" fill="#32DE84"/>
</svg>
